<mxfile host="app.diagrams.net" modified="2022-08-03T09:11:57.584Z" agent="5.0 (Windows NT 10.0; Win64; x64) AppleWebKit/537.36 (KHTML, like Gecko) Chrome/103.0.0.0 Safari/537.36" etag="FHuMnbqnO2lzJH2L69UU" version="20.2.2" type="github">
  <diagram id="4eLJt4EaMtUjdU0TK9T4" name="Page-1">
    <mxGraphModel dx="1453" dy="559" grid="1" gridSize="10" guides="1" tooltips="1" connect="1" arrows="1" fold="1" page="0" pageScale="1" pageWidth="827" pageHeight="1169" math="0" shadow="0">
      <root>
        <mxCell id="0" />
        <mxCell id="1" parent="0" />
        <mxCell id="ouAs2bXUsqZGMLNDFdja-1" value="" style="endArrow=none;dashed=1;html=1;strokeColor=#000000;strokeWidth=1;curved=1;fillColor=#f5f5f5;fontSize=14;" edge="1" parent="1">
          <mxGeometry width="50" height="50" relative="1" as="geometry">
            <mxPoint x="440" y="360" as="sourcePoint" />
            <mxPoint x="440" y="680" as="targetPoint" />
          </mxGeometry>
        </mxCell>
        <mxCell id="ouAs2bXUsqZGMLNDFdja-2" value="" style="endArrow=none;dashed=1;html=1;strokeColor=#000000;strokeWidth=1;curved=1;fillColor=#f5f5f5;fontSize=14;" edge="1" parent="1">
          <mxGeometry width="50" height="50" relative="1" as="geometry">
            <mxPoint x="440" y="360" as="sourcePoint" />
            <mxPoint x="-120" y="360" as="targetPoint" />
          </mxGeometry>
        </mxCell>
        <mxCell id="5k4cfH1AcY9pZe5q_gP3-78" value="" style="endArrow=none;dashed=1;html=1;strokeColor=#666666;strokeWidth=1;curved=1;fillColor=#f5f5f5;fontSize=14;" parent="1" source="5k4cfH1AcY9pZe5q_gP3-63" edge="1">
          <mxGeometry width="50" height="50" relative="1" as="geometry">
            <mxPoint x="290" y="420" as="sourcePoint" />
            <mxPoint x="280" y="680" as="targetPoint" />
          </mxGeometry>
        </mxCell>
        <mxCell id="5k4cfH1AcY9pZe5q_gP3-76" value="" style="endArrow=none;dashed=1;html=1;strokeColor=#666666;strokeWidth=1;curved=1;fillColor=#f5f5f5;fontSize=14;" parent="1" edge="1">
          <mxGeometry width="50" height="50" relative="1" as="geometry">
            <mxPoint x="280" y="410" as="sourcePoint" />
            <mxPoint x="-120" y="410" as="targetPoint" />
          </mxGeometry>
        </mxCell>
        <mxCell id="5k4cfH1AcY9pZe5q_gP3-47" value="" style="endArrow=none;dashed=1;html=1;strokeColor=#b85450;strokeWidth=1;curved=1;fillColor=#f8cecc;fontSize=14;" parent="1" edge="1">
          <mxGeometry width="50" height="50" relative="1" as="geometry">
            <mxPoint x="280" y="500" as="sourcePoint" />
            <mxPoint x="-120" y="500" as="targetPoint" />
          </mxGeometry>
        </mxCell>
        <mxCell id="5k4cfH1AcY9pZe5q_gP3-48" value="" style="endArrow=none;dashed=1;html=1;strokeColor=#6c8ebf;strokeWidth=1;curved=1;fillColor=#dae8fc;fontSize=14;" parent="1" edge="1">
          <mxGeometry width="50" height="50" relative="1" as="geometry">
            <mxPoint x="140" y="550" as="sourcePoint" />
            <mxPoint x="-120" y="550" as="targetPoint" />
          </mxGeometry>
        </mxCell>
        <mxCell id="5k4cfH1AcY9pZe5q_gP3-1" value="" style="endArrow=classic;html=1;rounded=0;fontSize=14;" parent="1" edge="1">
          <mxGeometry width="50" height="50" relative="1" as="geometry">
            <mxPoint x="-120" y="680" as="sourcePoint" />
            <mxPoint x="520" y="680" as="targetPoint" />
          </mxGeometry>
        </mxCell>
        <mxCell id="5k4cfH1AcY9pZe5q_gP3-3" value="" style="endArrow=classic;html=1;rounded=0;fontSize=14;" parent="1" edge="1">
          <mxGeometry width="50" height="50" relative="1" as="geometry">
            <mxPoint x="-120.00385964912277" y="680" as="sourcePoint" />
            <mxPoint x="-120.00385964912277" y="317.5" as="targetPoint" />
          </mxGeometry>
        </mxCell>
        <mxCell id="5k4cfH1AcY9pZe5q_gP3-7" value="&lt;i style=&quot;font-size: 14px;&quot;&gt;BAC&lt;/i&gt;" style="rounded=0;whiteSpace=wrap;html=1;strokeColor=none;fillColor=none;fontSize=14;" parent="1" vertex="1">
          <mxGeometry x="-160" y="340" width="40" height="40" as="geometry" />
        </mxCell>
        <mxCell id="5k4cfH1AcY9pZe5q_gP3-8" value="&lt;span style=&quot;font-style: normal; font-size: 14px;&quot;&gt;Time&lt;/span&gt;" style="rounded=0;whiteSpace=wrap;html=1;strokeColor=none;fillColor=none;fontStyle=3;fontSize=14;verticalAlign=top;" parent="1" vertex="1">
          <mxGeometry x="-120" y="720" width="614.74" height="40" as="geometry" />
        </mxCell>
        <mxCell id="5k4cfH1AcY9pZe5q_gP3-9" value="&lt;span style=&quot;font-style: normal; font-size: 14px;&quot;&gt;Cost&lt;/span&gt;" style="rounded=0;whiteSpace=wrap;html=1;strokeColor=none;fillColor=none;fontStyle=3;fontSize=14;align=right;" parent="1" vertex="1">
          <mxGeometry x="-220" y="320" width="40" height="360" as="geometry" />
        </mxCell>
        <mxCell id="5k4cfH1AcY9pZe5q_gP3-28" value="&lt;i style=&quot;font-size: 14px;&quot;&gt;PD&lt;/i&gt;" style="rounded=0;whiteSpace=wrap;html=1;strokeColor=none;fillColor=none;fontSize=14;" parent="1" vertex="1">
          <mxGeometry x="420" y="680" width="40" height="40" as="geometry" />
        </mxCell>
        <mxCell id="5k4cfH1AcY9pZe5q_gP3-29" value="&lt;i style=&quot;font-size: 14px;&quot;&gt;t&lt;/i&gt;" style="rounded=0;whiteSpace=wrap;html=1;strokeColor=none;fillColor=none;fontSize=14;" parent="1" vertex="1">
          <mxGeometry x="260.07" y="680" width="40" height="40" as="geometry" />
        </mxCell>
        <mxCell id="5k4cfH1AcY9pZe5q_gP3-31" value="CV" style="endArrow=none;startArrow=none;html=1;strokeColor=#000000;strokeWidth=1;curved=1;fontStyle=2;startFill=0;endFill=0;fontSize=14;" parent="1" edge="1">
          <mxGeometry width="50" height="50" relative="1" as="geometry">
            <mxPoint x="80" y="550" as="sourcePoint" />
            <mxPoint x="80" y="500" as="targetPoint" />
            <mxPoint as="offset" />
          </mxGeometry>
        </mxCell>
        <mxCell id="5k4cfH1AcY9pZe5q_gP3-41" value="&lt;i style=&quot;font-size: 14px;&quot;&gt;SV&lt;/i&gt;" style="endArrow=none;html=1;strokeColor=#000000;strokeWidth=1;curved=1;fontSize=14;" parent="1" edge="1">
          <mxGeometry width="50" height="50" relative="1" as="geometry">
            <mxPoint x="20" y="550" as="sourcePoint" />
            <mxPoint x="20" y="410" as="targetPoint" />
          </mxGeometry>
        </mxCell>
        <mxCell id="5k4cfH1AcY9pZe5q_gP3-45" value="&lt;i style=&quot;font-size: 14px;&quot;&gt;ES(t)&lt;/i&gt;" style="rounded=0;whiteSpace=wrap;html=1;strokeColor=none;fillColor=none;fontSize=14;" parent="1" vertex="1">
          <mxGeometry x="120" y="680" width="40" height="40" as="geometry" />
        </mxCell>
        <mxCell id="5k4cfH1AcY9pZe5q_gP3-49" value="&lt;i style=&quot;font-size: 14px;&quot;&gt;AC(t)&lt;/i&gt;" style="rounded=0;whiteSpace=wrap;html=1;strokeColor=none;fillColor=none;fontSize=14;labelBackgroundColor=none;fontColor=#B85450;" parent="1" vertex="1">
          <mxGeometry x="-160" y="480" width="40" height="40" as="geometry" />
        </mxCell>
        <mxCell id="5k4cfH1AcY9pZe5q_gP3-50" value="&lt;i style=&quot;font-size: 14px;&quot;&gt;EV(t)&lt;/i&gt;" style="rounded=0;whiteSpace=wrap;html=1;strokeColor=none;fillColor=none;fontSize=14;fontColor=#6C8EBF;" parent="1" vertex="1">
          <mxGeometry x="-160" y="530.13" width="40" height="40" as="geometry" />
        </mxCell>
        <mxCell id="5k4cfH1AcY9pZe5q_gP3-55" value="&lt;i style=&quot;font-size: 14px;&quot;&gt;&lt;font&gt;PV(t)&lt;/font&gt;&lt;/i&gt;" style="rounded=0;whiteSpace=wrap;html=1;strokeColor=none;fillColor=none;fontSize=14;labelBackgroundColor=none;fontColor=#666666;" parent="1" vertex="1">
          <mxGeometry x="-160" y="390.12" width="40" height="40" as="geometry" />
        </mxCell>
        <mxCell id="5k4cfH1AcY9pZe5q_gP3-24" value="" style="endArrow=none;html=1;strokeColor=#6c8ebf;strokeWidth=2;curved=1;fillColor=#dae8fc;fontSize=14;" parent="1" edge="1">
          <mxGeometry width="50" height="50" relative="1" as="geometry">
            <mxPoint x="-120.0038596491228" y="680" as="sourcePoint" />
            <mxPoint x="280" y="550" as="targetPoint" />
            <Array as="points">
              <mxPoint x="97.71543859649117" y="667.5" />
            </Array>
          </mxGeometry>
        </mxCell>
        <mxCell id="5k4cfH1AcY9pZe5q_gP3-25" value="" style="endArrow=none;html=1;strokeColor=#b85450;strokeWidth=2;curved=1;fillColor=#f8cecc;fontSize=14;" parent="1" edge="1">
          <mxGeometry width="50" height="50" relative="1" as="geometry">
            <mxPoint x="-120.0038596491228" y="680" as="sourcePoint" />
            <mxPoint x="280" y="500" as="targetPoint" />
            <Array as="points">
              <mxPoint x="97.71543859649117" y="667.5" />
            </Array>
          </mxGeometry>
        </mxCell>
        <mxCell id="5k4cfH1AcY9pZe5q_gP3-60" value="" style="ellipse;whiteSpace=wrap;html=1;labelBackgroundColor=none;fontSize=14;fillColor=#f8cecc;strokeColor=#b85450;" parent="1" vertex="1">
          <mxGeometry x="276.86491228070173" y="496.875" width="6.4035087719298245" height="6.25" as="geometry" />
        </mxCell>
        <mxCell id="5k4cfH1AcY9pZe5q_gP3-14" value="" style="endArrow=none;html=1;startArrow=none;startFill=0;curved=1;fillColor=#f5f5f5;strokeColor=#666666;strokeWidth=2;fontSize=14;" parent="1" edge="1">
          <mxGeometry width="50" height="50" relative="1" as="geometry">
            <mxPoint x="-120.0038596491228" y="680" as="sourcePoint" />
            <mxPoint x="440" y="360" as="targetPoint" />
            <Array as="points">
              <mxPoint x="40" y="680" />
              <mxPoint x="290" y="360" />
            </Array>
          </mxGeometry>
        </mxCell>
        <mxCell id="5k4cfH1AcY9pZe5q_gP3-63" value="" style="ellipse;whiteSpace=wrap;html=1;labelBackgroundColor=none;fontSize=14;fillColor=#f5f5f5;strokeColor=#666666;fontColor=#333333;" parent="1" vertex="1">
          <mxGeometry x="276.86491228070173" y="406.995" width="6.4035087719298245" height="6.25" as="geometry" />
        </mxCell>
        <mxCell id="5k4cfH1AcY9pZe5q_gP3-46" value="&lt;span style=&quot;font-size: 14px;&quot;&gt;&lt;i&gt;SV&lt;/i&gt;&lt;sup style=&quot;&quot;&gt;t&lt;/sup&gt;&lt;/span&gt;" style="endArrow=none;html=1;strokeColor=#000000;strokeWidth=1;curved=1;fontSize=14;startArrow=none;" parent="1" edge="1">
          <mxGeometry width="50" height="50" relative="1" as="geometry">
            <mxPoint x="279.8666666666666" y="550" as="sourcePoint" />
            <mxPoint x="140" y="550" as="targetPoint" />
            <mxPoint as="offset" />
          </mxGeometry>
        </mxCell>
        <mxCell id="5k4cfH1AcY9pZe5q_gP3-58" value="" style="ellipse;whiteSpace=wrap;html=1;labelBackgroundColor=none;fontSize=14;fillColor=#dae8fc;strokeColor=#6c8ebf;" parent="1" vertex="1">
          <mxGeometry x="276.86491228070173" y="547.005" width="6.4035087719298245" height="6.25" as="geometry" />
        </mxCell>
        <mxCell id="5k4cfH1AcY9pZe5q_gP3-79" value="" style="endArrow=none;dashed=1;html=1;strokeColor=#666666;strokeWidth=1;curved=1;fillColor=#f5f5f5;fontSize=14;" parent="1" edge="1">
          <mxGeometry width="50" height="50" relative="1" as="geometry">
            <mxPoint x="140" y="550" as="sourcePoint" />
            <mxPoint x="140" y="680" as="targetPoint" />
          </mxGeometry>
        </mxCell>
      </root>
    </mxGraphModel>
  </diagram>
</mxfile>
